<svg width="19" height="19" viewBox="0 0 19 19" fill="none" xmlns="http://www.w3.org/2000/svg">
<path d="M8.99918 0.501744C8.80118 0.501744 8.60468 0.507744 8.40893 0.520494C7.88468 0.554994 7.47293 0.988494 7.47293 1.51874C7.47293 1.90124 7.68818 2.23349 8.00318 2.40224L8.00843 2.40449C9.62243 3.23099 10.7144 4.87274 10.7407 6.77174V6.77549C10.6469 9.55799 8.36918 11.7772 5.57243 11.7772C5.52068 11.7772 5.46893 11.7765 5.41718 11.775H5.42468C5.41493 11.775 5.40368 11.775 5.39168 11.775C3.99068 11.775 2.71268 11.2485 1.74518 10.3822L1.75043 10.3867C1.57418 10.227 1.33868 10.1295 1.08068 10.1295C0.528683 10.1295 0.0809326 10.5772 0.0809326 11.1292C0.0809326 11.202 0.0884328 11.2725 0.103433 11.34L0.101933 11.3332C1.01918 15.4605 4.64918 18.5002 8.98868 18.5002C13.9777 18.5002 18.0284 14.4825 18.0809 9.50549V9.50024C18.0509 4.52324 14.0092 0.500244 9.02843 0.500244C9.01718 0.500244 9.00668 0.500244 8.99543 0.500244H8.99693L8.99918 0.501744Z" fill="black"/>
</svg>
