<svg width="20" height="21" viewBox="0 0 20 21" fill="none" xmlns="http://www.w3.org/2000/svg">
<path d="M18.0003 11.5H13C11.896 11.4985 11.0013 10.6038 10.9998 9.50051V2.50001C11.0013 1.39601 11.896 0.501256 12.9993 0.499756H17.9995C19.1035 0.501256 19.9983 1.39601 19.9998 2.49926V9.49976C19.9983 10.6038 19.1035 11.4985 18.0003 11.5ZM13 2.50001V9.49976H18.0018L17.9995 2.50001H13ZM7.00001 8.50001H1.99976C0.895762 8.49851 0.00101172 7.60376 -0.000488281 6.50051V2.50001C0.00101172 1.39601 0.895762 0.501256 1.99901 0.499756H6.99926C8.10326 0.501256 8.99801 1.39601 8.99951 2.49926V6.49976C8.99801 7.60376 8.10326 8.49851 7.00001 8.50001ZM1.99976 2.50001V6.49976H7.00151L6.99926 2.50001H1.99976ZM18.0003 20.5H13C11.896 20.4985 11.0013 19.6038 10.9998 18.5005V15.5005C11.0013 14.3965 11.896 13.5018 12.9993 13.5003H17.9995C19.1035 13.5018 19.9983 14.3965 19.9998 15.4998V18.4998C19.9983 19.6038 19.1035 20.4985 18.0003 20.5ZM13 15.4998V18.4998H18.0018L17.9995 15.4998H13ZM7.00001 20.5H1.99976C0.895762 20.4985 0.00101172 19.6038 -0.000488281 18.5005V12.5005C0.00101172 11.3965 0.895762 10.5018 1.99901 10.5003H6.99926C8.10326 10.5018 8.99801 11.3965 8.99951 12.4998V18.4998C8.99801 19.6038 8.10326 20.4985 7.00001 20.5ZM1.99976 12.4998V18.4998H7.00151L6.99926 12.4998H1.99976Z" fill="url(#paint0_linear)"/>
<defs>
<linearGradient id="paint0_linear" x1="1.18471" y1="-21.4053" x2="39.0357" y2="-17.5555" gradientUnits="userSpaceOnUse">
<stop stop-color="#2042B8"/>
<stop offset="0.933726" stop-color="#FF6600"/>
</linearGradient>
</defs>
</svg>
