<svg width="20" height="20" viewBox="0 0 20 20" fill="none" xmlns="http://www.w3.org/2000/svg">
<path d="M10 2.08313C5.39751 2.08313 1.66688 5.81438 1.66688 10.4163C1.66688 15.0181 5.39813 18.7494 10 18.7494C14.6025 18.7494 18.3331 15.0181 18.3331 10.4163C18.3275 5.81625 14.6 2.08813 10.0006 2.08313H10ZM16.6081 9.58313H13.7788C13.5938 7.50063 12.9163 5.60751 11.8638 3.97938L11.8931 4.0275C14.4038 4.79375 16.2613 6.93313 16.605 9.54938L16.6088 9.58313H16.6081ZM7.88313 11.25H12.1144C11.9025 13.2944 11.1406 15.1288 9.98126 16.6419L10 16.6163C8.85813 15.1288 8.09563 13.2944 7.88751 11.2956L7.88376 11.25H7.88313ZM7.88563 9.58313C8.09751 7.53875 8.85938 5.70438 10.0188 4.19125L10 4.21688C11.1419 5.70438 11.9044 7.53875 12.1125 9.53751L12.1163 9.58313H7.88563ZM8.10688 4.0275C7.08501 5.60813 6.40813 7.50063 6.22626 9.53563L6.22313 9.58313H3.39188C3.73876 6.93313 5.59688 4.79376 8.06063 4.04001L8.10813 4.0275H8.10688ZM3.39126 11.25H6.22063C6.40563 13.3325 7.08313 15.2256 8.13563 16.8538L8.10626 16.8056C5.59563 16.0394 3.73813 13.9 3.39438 11.2838L3.39063 11.25H3.39126ZM11.8931 16.8056C12.915 15.225 13.5919 13.3325 13.7738 11.2975L13.7769 11.25H16.6081C16.2613 13.9 14.4031 16.0394 11.9394 16.7931L11.8919 16.8056H11.8931Z" fill="#333333"/>
</svg>
